solid c
   facet normal 0.000000e+000 1.000000e+000 0.000000e+000
      outer loop
         vertex 1.855311e-001 3.833333e-001 7.910088e-002
         vertex 1.015575e-001 3.833333e-001 1.634861e-001
         vertex 2.056936e-001 3.833333e-001 9.936225e-002
      endloop
   endfacet
   facet normal 0.000000e+000 1.000000e+000 0.000000e+000
      outer loop
         vertex 2.056936e-001 3.833333e-001 9.936225e-002
         vertex 1.015575e-001 3.833333e-001 1.634861e-001
         vertex 1.216126e-001 3.833333e-001 1.834433e-001
      endloop
   endfacet
   facet normal 0.000000e+000 -1.000000e+000 0.000000e+000
      outer loop
         vertex 1.181045e-001 8.333333e-003 1.869514e-001
         vertex 1.137043e-001 8.333333e-003 1.825727e-001
         vertex 2.092017e-001 8.333333e-003 9.585416e-002
      endloop
   endfacet
   facet normal 0.000000e+000 -1.000000e+000 0.000000e+000
      outer loop
         vertex 2.092017e-001 8.333333e-003 9.585416e-002
         vertex 1.137043e-001 8.333333e-003 1.825727e-001
         vertex 1.077522e-001 8.333333e-003 1.756440e-001
      endloop
   endfacet
   facet normal 0.000000e+000 -1.000000e+000 0.000000e+000
      outer loop
         vertex 1.978491e-001 8.333333e-003 8.546273e-002
         vertex 2.048010e-001 8.333333e-003 9.143188e-002
         vertex 1.294571e-001 8.333333e-003 8.546273e-002
      endloop
   endfacet
   facet normal 0.000000e+000 -1.000000e+000 0.000000e+000
      outer loop
         vertex 9.935736e-002 8.333333e-003 1.236414e-001
         vertex 1.028315e-001 8.333333e-003 1.152198e-001
         vertex 2.092017e-001 8.333333e-003 9.585416e-002
      endloop
   endfacet
   facet normal 0.000000e+000 -1.000000e+000 0.000000e+000
      outer loop
         vertex 1.028315e-001 8.333333e-003 1.152198e-001
         vertex 1.075854e-001 8.333333e-003 1.074354e-001
         vertex 2.092017e-001 8.333333e-003 9.585416e-002
      endloop
   endfacet
   facet normal 0.000000e+000 -1.000000e+000 0.000000e+000
      outer loop
         vertex 2.092017e-001 8.333333e-003 9.585416e-002
         vertex 1.075854e-001 8.333333e-003 1.074354e-001
         vertex 1.135036e-001 8.333333e-003 1.004776e-001
      endloop
   endfacet
   facet normal 0.000000e+000 -1.000000e+000 0.000000e+000
      outer loop
         vertex 2.092017e-001 8.333333e-003 9.585416e-002
         vertex 1.135036e-001 8.333333e-003 1.004776e-001
         vertex 2.048010e-001 8.333333e-003 9.143188e-002
      endloop
   endfacet
   facet normal 0.000000e+000 -1.000000e+000 0.000000e+000
      outer loop
         vertex 2.048010e-001 8.333333e-003 9.143188e-002
         vertex 1.135036e-001 8.333333e-003 1.004776e-001
         vertex 1.225052e-001 8.333333e-003 9.143188e-002
      endloop
   endfacet
   facet normal 0.000000e+000 -1.000000e+000 0.000000e+000
      outer loop
         vertex 2.048010e-001 8.333333e-003 9.143188e-002
         vertex 1.225052e-001 8.333333e-003 9.143188e-002
         vertex 1.294571e-001 8.333333e-003 8.546273e-002
      endloop
   endfacet
   facet normal 0.000000e+000 -1.000000e+000 0.000000e+000
      outer loop
         vertex 1.978491e-001 8.333333e-003 8.546273e-002
         vertex 1.294571e-001 8.333333e-003 8.546273e-002
         vertex 1.900604e-001 8.333333e-003 8.066142e-002
      endloop
   endfacet
   facet normal 0.000000e+000 -1.000000e+000 0.000000e+000
      outer loop
         vertex 1.900604e-001 8.333333e-003 8.066142e-002
         vertex 1.294571e-001 8.333333e-003 8.546273e-002
         vertex 1.372459e-001 8.333333e-003 8.066142e-002
      endloop
   endfacet
   facet normal 0.000000e+000 -1.000000e+000 0.000000e+000
      outer loop
         vertex 1.900604e-001 8.333333e-003 8.066142e-002
         vertex 1.372459e-001 8.333333e-003 8.066142e-002
         vertex 1.816254e-001 8.333333e-003 7.714543e-002
      endloop
   endfacet
   facet normal 0.000000e+000 -1.000000e+000 0.000000e+000
      outer loop
         vertex 1.077522e-001 8.333333e-003 1.756440e-001
         vertex 1.029602e-001 8.333333e-003 1.678829e-001
         vertex 2.092017e-001 8.333333e-003 9.585416e-002
      endloop
   endfacet
   facet normal 0.000000e+000 -1.000000e+000 0.000000e+000
      outer loop
         vertex 2.092017e-001 8.333333e-003 9.585416e-002
         vertex 1.029602e-001 8.333333e-003 1.678829e-001
         vertex 9.944498e-002 8.333333e-003 1.594783e-001
      endloop
   endfacet
   facet normal 0.000000e+000 -1.000000e+000 0.000000e+000
      outer loop
         vertex 2.092017e-001 8.333333e-003 9.585416e-002
         vertex 9.944498e-002 8.333333e-003 1.594783e-001
         vertex 9.729195e-002 8.333333e-003 1.506346e-001
      endloop
   endfacet
   facet normal 0.000000e+000 -1.000000e+000 0.000000e+000
      outer loop
         vertex 9.729195e-002 8.333333e-003 1.506346e-001
         vertex 9.655350e-002 8.333333e-003 1.415668e-001
         vertex 2.092017e-001 8.333333e-003 9.585416e-002
      endloop
   endfacet
   facet normal 0.000000e+000 -1.000000e+000 0.000000e+000
      outer loop
         vertex 2.092017e-001 8.333333e-003 9.585416e-002
         vertex 9.655350e-002 8.333333e-003 1.415668e-001
         vertex 9.724760e-002 8.333333e-003 1.324956e-001
      endloop
   endfacet
   facet normal 0.000000e+000 -1.000000e+000 0.000000e+000
      outer loop
         vertex 2.092017e-001 8.333333e-003 9.585416e-002
         vertex 9.724760e-002 8.333333e-003 1.324956e-001
         vertex 9.935736e-002 8.333333e-003 1.236414e-001
      endloop
   endfacet
   facet normal 0.000000e+000 -1.000000e+000 0.000000e+000
      outer loop
         vertex 1.372459e-001 8.333333e-003 8.066142e-002
         vertex 1.456809e-001 8.333333e-003 7.714543e-002
         vertex 1.816254e-001 8.333333e-003 7.714543e-002
      endloop
   endfacet
   facet normal 0.000000e+000 -1.000000e+000 0.000000e+000
      outer loop
         vertex 1.816254e-001 8.333333e-003 7.714543e-002
         vertex 1.456809e-001 8.333333e-003 7.714543e-002
         vertex 1.545557e-001 8.333333e-003 7.500082e-002
      endloop
   endfacet
   facet normal 0.000000e+000 -1.000000e+000 0.000000e+000
      outer loop
         vertex 1.816254e-001 8.333333e-003 7.714543e-002
         vertex 1.545557e-001 8.333333e-003 7.500082e-002
         vertex 1.727506e-001 8.333333e-003 7.500082e-002
      endloop
   endfacet
   facet normal 0.000000e+000 -1.000000e+000 0.000000e+000
      outer loop
         vertex 1.727506e-001 8.333333e-003 7.500082e-002
         vertex 1.545557e-001 8.333333e-003 7.500082e-002
         vertex 1.636531e-001 8.333333e-003 7.428008e-002
      endloop
   endfacet
   facet normal 7.053927e-001 -9.841113e-002 -7.019519e-001
      outer loop
         vertex 2.092017e-001 8.333333e-003 9.585416e-002
         vertex 2.048010e-001 8.333333e-003 9.143188e-002
         vertex 2.308434e-001 3.178238e-001 7.421249e-002
      endloop
   endfacet
   facet normal 7.053927e-001 -9.841113e-002 -7.019519e-001
      outer loop
         vertex 2.308434e-001 3.178238e-001 7.421249e-002
         vertex 2.048010e-001 8.333333e-003 9.143188e-002
         vertex 2.048010e-001 3.178238e-001 4.804244e-002
      endloop
   endfacet
   facet normal -7.019519e-001 -9.841113e-002 7.053927e-001
      outer loop
         vertex 9.646282e-002 3.178238e-001 2.085931e-001
         vertex 7.042123e-002 3.178238e-001 1.826785e-001
         vertex 1.181045e-001 8.333333e-003 1.869514e-001
      endloop
   endfacet
   facet normal -7.019519e-001 -9.841113e-002 7.053927e-001
      outer loop
         vertex 1.181045e-001 8.333333e-003 1.869514e-001
         vertex 7.042123e-002 3.178238e-001 1.826785e-001
         vertex 1.137043e-001 8.333333e-003 1.825727e-001
      endloop
   endfacet
   facet normal 5.481136e-001 6.340872e-001 -5.454401e-001
      outer loop
         vertex 2.216911e-001 3.605528e-001 8.336478e-002
         vertex 1.926734e-001 3.605528e-001 5.420480e-002
         vertex 1.862075e-001 3.771568e-001 6.700973e-002
      endloop
   endfacet
   facet normal 5.481136e-001 6.340872e-001 -5.454401e-001
      outer loop
         vertex 1.855311e-001 3.802840e-001 6.996555e-002
         vertex 2.102502e-001 3.802840e-001 9.480575e-002
         vertex 1.855674e-001 3.796298e-001 6.924139e-002
      endloop
   endfacet
   facet normal 5.481136e-001 6.340872e-001 -5.454401e-001
      outer loop
         vertex 1.855674e-001 3.796298e-001 6.924139e-002
         vertex 2.102502e-001 3.802840e-001 9.480575e-002
         vertex 2.216911e-001 3.605528e-001 8.336478e-002
      endloop
   endfacet
   facet normal 5.481136e-001 6.340872e-001 -5.454401e-001
      outer loop
         vertex 1.855674e-001 3.796298e-001 6.924139e-002
         vertex 2.216911e-001 3.605528e-001 8.336478e-002
         vertex 1.857894e-001 3.784392e-001 6.808040e-002
      endloop
   endfacet
   facet normal 5.481136e-001 6.340872e-001 -5.454401e-001
      outer loop
         vertex 1.857894e-001 3.784392e-001 6.808040e-002
         vertex 2.216911e-001 3.605528e-001 8.336478e-002
         vertex 1.862075e-001 3.771568e-001 6.700973e-002
      endloop
   endfacet
   facet normal -5.454401e-001 6.340872e-001 5.481136e-001
      outer loop
         vertex 1.170561e-001 3.802840e-001 1.879998e-001
         vertex 9.244458e-002 3.802840e-001 1.635084e-001
         vertex 1.056151e-001 3.605528e-001 1.994408e-001
      endloop
   endfacet
   facet normal -5.454401e-001 6.340872e-001 5.481136e-001
      outer loop
         vertex 1.056151e-001 3.605528e-001 1.994408e-001
         vertex 9.244458e-002 3.802840e-001 1.635084e-001
         vertex 9.172229e-002 3.796298e-001 1.635465e-001
      endloop
   endfacet
   facet normal -5.454401e-001 6.340872e-001 5.481136e-001
      outer loop
         vertex 9.172229e-002 3.796298e-001 1.635465e-001
         vertex 9.056468e-002 3.784392e-001 1.637718e-001
         vertex 1.056151e-001 3.605528e-001 1.994408e-001
      endloop
   endfacet
   facet normal -5.454401e-001 6.340872e-001 5.481136e-001
      outer loop
         vertex 1.056151e-001 3.605528e-001 1.994408e-001
         vertex 9.056468e-002 3.784392e-001 1.637718e-001
         vertex 8.949767e-002 3.771568e-001 1.641936e-001
      endloop
   endfacet
   facet normal -5.454401e-001 6.340872e-001 5.481136e-001
      outer loop
         vertex 1.056151e-001 3.605528e-001 1.994408e-001
         vertex 8.949767e-002 3.771568e-001 1.641936e-001
         vertex 7.673997e-002 3.605528e-001 1.707065e-001
      endloop
   endfacet
   facet normal -4.989320e-001 7.068856e-001 5.013776e-001
      outer loop
         vertex 1.176539e-001 3.811727e-001 1.874020e-001
         vertex 9.366675e-002 3.811521e-001 1.635054e-001
         vertex 1.170561e-001 3.802840e-001 1.879998e-001
      endloop
   endfacet
   facet normal -5.123107e-001 6.873835e-001 5.148219e-001
      outer loop
         vertex 1.170561e-001 3.802840e-001 1.879998e-001
         vertex 9.366675e-002 3.811521e-001 1.635054e-001
         vertex 9.295603e-002 3.806966e-001 1.635071e-001
      endloop
   endfacet
   facet normal -5.354941e-001 6.509025e-001 5.381190e-001
      outer loop
         vertex 1.170561e-001 3.802840e-001 1.879998e-001
         vertex 9.295603e-002 3.806966e-001 1.635071e-001
         vertex 9.244458e-002 3.802840e-001 1.635084e-001
      endloop
   endfacet
   facet normal -3.326404e-001 8.818239e-001 3.342709e-001
      outer loop
         vertex 1.183376e-001 3.819277e-001 1.867183e-001
         vertex 1.190921e-001 3.825325e-001 1.859637e-001
         vertex 9.652994e-002 3.825111e-001 1.634984e-001
      endloop
   endfacet
   facet normal -3.427477e-001 8.740100e-001 3.444278e-001
      outer loop
         vertex 9.652994e-002 3.825111e-001 1.634984e-001
         vertex 9.600208e-002 3.823493e-001 1.634997e-001
         vertex 1.183376e-001 3.819277e-001 1.867183e-001
      endloop
   endfacet
   facet normal -3.726080e-001 8.490949e-001 3.744344e-001
      outer loop
         vertex 1.183376e-001 3.819277e-001 1.867183e-001
         vertex 9.600208e-002 3.823493e-001 1.634997e-001
         vertex 9.502806e-002 3.819053e-001 1.635020e-001
      endloop
   endfacet
   facet normal -4.203402e-001 8.030516e-001 4.224006e-001
      outer loop
         vertex 1.183376e-001 3.819277e-001 1.867183e-001
         vertex 9.502806e-002 3.819053e-001 1.635020e-001
         vertex 1.176539e-001 3.811727e-001 1.874020e-001
      endloop
   endfacet
   facet normal -4.325674e-001 7.898936e-001 4.346878e-001
      outer loop
         vertex 1.176539e-001 3.811727e-001 1.874020e-001
         vertex 9.502806e-002 3.819053e-001 1.635020e-001
         vertex 9.438323e-002 3.816113e-001 1.635036e-001
      endloop
   endfacet
   facet normal -4.593957e-001 7.588394e-001 4.616475e-001
      outer loop
         vertex 1.176539e-001 3.811727e-001 1.874020e-001
         vertex 9.438323e-002 3.816113e-001 1.635036e-001
         vertex 9.366675e-002 3.811521e-001 1.635054e-001
      endloop
   endfacet
   facet normal -1.414216e-001 9.796955e-001 1.421148e-001
      outer loop
         vertex 9.982884e-002 3.832331e-001 1.634903e-001
         vertex 9.963780e-002 3.832220e-001 1.634908e-001
         vertex 1.199013e-001 3.829742e-001 1.851546e-001
      endloop
   endfacet
   facet normal -1.752210e-001 9.686555e-001 1.760798e-001
      outer loop
         vertex 1.199013e-001 3.829742e-001 1.851546e-001
         vertex 9.963780e-002 3.832220e-001 1.634908e-001
         vertex 9.814132e-002 3.829570e-001 1.634944e-001
      endloop
   endfacet
   facet normal -2.377295e-001 9.414957e-001 2.388948e-001
      outer loop
         vertex 1.199013e-001 3.829742e-001 1.851546e-001
         vertex 9.814132e-002 3.829570e-001 1.634944e-001
         vertex 1.190921e-001 3.825325e-001 1.859637e-001
      endloop
   endfacet
   facet normal -2.449407e-001 9.377732e-001 2.461413e-001
      outer loop
         vertex 1.190921e-001 3.825325e-001 1.859637e-001
         vertex 9.814132e-002 3.829570e-001 1.634944e-001
         vertex 9.776934e-002 3.828911e-001 1.634953e-001
      endloop
   endfacet
   facet normal -2.771429e-001 9.195808e-001 2.785014e-001
      outer loop
         vertex 1.190921e-001 3.825325e-001 1.859637e-001
         vertex 9.776934e-002 3.828911e-001 1.634953e-001
         vertex 9.652994e-002 3.825111e-001 1.634984e-001
      endloop
   endfacet
   facet normal -1.376607e-001 9.807716e-001 1.383354e-001
      outer loop
         vertex 1.199013e-001 3.829742e-001 1.851546e-001
         vertex 1.207476e-001 3.832431e-001 1.843083e-001
         vertex 9.982884e-002 3.832331e-001 1.634903e-001
      endloop
   endfacet
   facet normal -6.921294e-002 9.951744e-001 6.955219e-002
      outer loop
         vertex 9.982884e-002 3.832331e-001 1.634903e-001
         vertex 1.207476e-001 3.832431e-001 1.843083e-001
         vertex 1.216126e-001 3.833333e-001 1.834433e-001
      endloop
   endfacet
   facet normal -3.461415e-002 9.987952e-001 3.478381e-002
      outer loop
         vertex 9.982884e-002 3.832331e-001 1.634903e-001
         vertex 1.216126e-001 3.833333e-001 1.834433e-001
         vertex 1.015575e-001 3.833333e-001 1.634861e-001
      endloop
   endfacet
   facet normal 3.476838e-002 9.987963e-001 -3.459879e-002
      outer loop
         vertex 2.056936e-001 3.833333e-001 9.936225e-002
         vertex 2.065586e-001 3.832431e-001 9.849725e-002
         vertex 1.855311e-001 3.833333e-001 7.910088e-002
      endloop
   endfacet
   facet normal 6.953675e-002 9.951766e-001 -6.919757e-002
      outer loop
         vertex 1.855311e-001 3.833333e-001 7.910088e-002
         vertex 2.065586e-001 3.832431e-001 9.849725e-002
         vertex 1.855311e-001 3.832431e-001 7.736664e-002
      endloop
   endfacet
   facet normal 1.078489e-001 9.883574e-001 -1.073229e-001
      outer loop
         vertex 1.855311e-001 3.832431e-001 7.736664e-002
         vertex 2.065586e-001 3.832431e-001 9.849725e-002
         vertex 1.855311e-001 3.832133e-001 7.717908e-002
      endloop
   endfacet
   facet normal 1.420878e-001 9.797034e-001 -1.413947e-001
      outer loop
         vertex 1.855311e-001 3.832133e-001 7.717908e-002
         vertex 2.065586e-001 3.832431e-001 9.849725e-002
         vertex 2.074049e-001 3.829742e-001 9.765099e-002
      endloop
   endfacet
   facet normal 1.760479e-001 9.686671e-001 -1.751892e-001
      outer loop
         vertex 1.855311e-001 3.832133e-001 7.717908e-002
         vertex 2.074049e-001 3.829742e-001 9.765099e-002
         vertex 1.855311e-001 3.829742e-001 7.566996e-002
      endloop
   endfacet
   facet normal 2.131949e-001 9.536971e-001 -2.121550e-001
      outer loop
         vertex 1.855311e-001 3.829742e-001 7.566996e-002
         vertex 2.074049e-001 3.829742e-001 9.765099e-002
         vertex 1.855311e-001 3.828765e-001 7.531121e-002
      endloop
   endfacet
   facet normal 2.461074e-001 9.377909e-001 -2.449069e-001
      outer loop
         vertex 1.855311e-001 3.828765e-001 7.531121e-002
         vertex 2.074049e-001 3.829742e-001 9.765099e-002
         vertex 2.082141e-001 3.825325e-001 9.684180e-002
      endloop
   endfacet
   facet normal 2.784702e-001 9.195995e-001 -2.771119e-001
      outer loop
         vertex 1.855311e-001 3.828765e-001 7.531121e-002
         vertex 2.082141e-001 3.825325e-001 9.684180e-002
         vertex 1.855311e-001 3.825325e-001 7.404763e-002
      endloop
   endfacet
   facet normal 3.135812e-001 8.968225e-001 -3.120516e-001
      outer loop
         vertex 1.855311e-001 3.825325e-001 7.404763e-002
         vertex 2.082141e-001 3.825325e-001 9.684180e-002
         vertex 1.855311e-001 3.823319e-001 7.354572e-002
      endloop
   endfacet
   facet normal 3.444010e-001 8.740310e-001 -3.427211e-001
      outer loop
         vertex 1.855311e-001 3.823319e-001 7.354572e-002
         vertex 2.082141e-001 3.825325e-001 9.684180e-002
         vertex 2.089687e-001 3.819277e-001 9.608722e-002
      endloop
   endfacet
   facet normal 3.744149e-001 8.491120e-001 -3.725886e-001
      outer loop
         vertex 1.855311e-001 3.823319e-001 7.354572e-002
         vertex 2.089687e-001 3.819277e-001 9.608722e-002
         vertex 1.855311e-001 3.819277e-001 7.253477e-002
      endloop
   endfacet
   facet normal 4.066665e-001 8.190569e-001 -4.046828e-001
      outer loop
         vertex 1.855311e-001 3.819277e-001 7.253477e-002
         vertex 2.089687e-001 3.819277e-001 9.608722e-002
         vertex 1.855311e-001 3.815937e-001 7.192839e-002
      endloop
   endfacet
   facet normal 4.346755e-001 7.899071e-001 -4.325552e-001
      outer loop
         vertex 1.855311e-001 3.815937e-001 7.192839e-002
         vertex 2.089687e-001 3.819277e-001 9.608722e-002
         vertex 2.096523e-001 3.811727e-001 9.540360e-002
      endloop
   endfacet
   facet normal 4.616438e-001 7.588439e-001 -4.593920e-001
      outer loop
         vertex 1.855311e-001 3.815937e-001 7.192839e-002
         vertex 2.096523e-001 3.811727e-001 9.540360e-002
         vertex 1.855311e-001 3.811727e-001 7.116418e-002
      endloop
   endfacet
   facet normal 4.902800e-001 7.222122e-001 -4.878885e-001
      outer loop
         vertex 1.855311e-001 3.811727e-001 7.116418e-002
         vertex 2.096523e-001 3.811727e-001 9.540360e-002
         vertex 1.855311e-001 3.806812e-001 7.050122e-002
      endloop
   endfacet
   facet normal 5.148248e-001 6.873792e-001 -5.123135e-001
      outer loop
         vertex 1.855311e-001 3.806812e-001 7.050122e-002
         vertex 2.096523e-001 3.811727e-001 9.540360e-002
         vertex 2.102502e-001 3.802840e-001 9.480575e-002
      endloop
   endfacet
   facet normal 5.381218e-001 6.508977e-001 -5.354971e-001
      outer loop
         vertex 1.855311e-001 3.806812e-001 7.050122e-002
         vertex 2.102502e-001 3.802840e-001 9.480575e-002
         vertex 1.855311e-001 3.802840e-001 6.996555e-002
      endloop
   endfacet
   facet normal 7.076272e-001 5.831441e-002 -7.041755e-001
      outer loop
         vertex 1.978491e-001 3.269473e-001 4.079421e-002
         vertex 1.978259e-001 3.269754e-001 4.077401e-002
         vertex 2.309731e-001 3.269755e-001 7.408285e-002
      endloop
   endfacet
   facet normal 5.708653e-001 5.927874e-001 -5.680808e-001
      outer loop
         vertex 1.926734e-001 3.605528e-001 5.420480e-002
         vertex 2.216911e-001 3.605528e-001 8.336478e-002
         vertex 2.253900e-001 3.530412e-001 7.966594e-002
      endloop
   endfacet
   facet normal 7.044852e-001 1.105942e-001 -7.010489e-001
      outer loop
         vertex 2.309731e-001 3.269755e-001 7.408285e-002
         vertex 1.978259e-001 3.269754e-001 4.077401e-002
         vertex 2.300888e-001 3.360432e-001 7.496713e-002
      endloop
   endfacet
   facet normal 5.921113e-001 5.497457e-001 -5.892231e-001
      outer loop
         vertex 1.926734e-001 3.605528e-001 5.420480e-002
         vertex 2.253900e-001 3.530412e-001 7.966594e-002
         vertex 1.949434e-001 3.530412e-001 4.907019e-002
      endloop
   endfacet
   facet normal 6.295689e-001 4.595034e-001 -6.264980e-001
      outer loop
         vertex 1.949434e-001 3.530412e-001 4.907019e-002
         vertex 2.253900e-001 3.530412e-001 7.966594e-002
         vertex 2.282123e-001 3.448037e-001 7.684356e-002
      endloop
   endfacet
   facet normal 6.457806e-001 4.123027e-001 -6.426305e-001
      outer loop
         vertex 1.949434e-001 3.530412e-001 4.907019e-002
         vertex 2.282123e-001 3.448037e-001 7.684356e-002
         vertex 1.962020e-001 3.448037e-001 4.467632e-002
      endloop
   endfacet
   facet normal 6.727704e-001 3.149047e-001 -6.694887e-001
      outer loop
         vertex 1.962020e-001 3.448037e-001 4.467632e-002
         vertex 2.282123e-001 3.448037e-001 7.684356e-002
         vertex 2.300888e-001 3.360432e-001 7.496713e-002
      endloop
   endfacet
   facet normal 6.835485e-001 2.647075e-001 -6.802143e-001
      outer loop
         vertex 1.962020e-001 3.448037e-001 4.467632e-002
         vertex 2.300888e-001 3.360432e-001 7.496713e-002
         vertex 1.964181e-001 3.360432e-001 4.113137e-002
      endloop
   endfacet
   facet normal 6.994059e-001 1.625521e-001 -6.959944e-001
      outer loop
         vertex 1.964181e-001 3.360432e-001 4.113137e-002
         vertex 2.300888e-001 3.360432e-001 7.496713e-002
         vertex 1.978259e-001 3.269754e-001 4.077401e-002
      endloop
   endfacet
   facet normal 7.033693e-001 1.239261e-001 -6.999385e-001
      outer loop
         vertex 1.964181e-001 3.360432e-001 4.113137e-002
         vertex 1.978259e-001 3.269754e-001 4.077401e-002
         vertex 1.958983e-001 3.293135e-001 3.909728e-002
      endloop
   endfacet
   facet normal 7.080752e-001 -4.624224e-002 -7.046213e-001
      outer loop
         vertex 2.308434e-001 3.178238e-001 7.421249e-002
         vertex 2.048010e-001 3.178238e-001 4.804244e-002
         vertex 2.309731e-001 3.269755e-001 7.408285e-002
      endloop
   endfacet
   facet normal 7.086900e-001 -2.011036e-002 -7.052332e-001
      outer loop
         vertex 2.309731e-001 3.269755e-001 7.408285e-002
         vertex 2.048010e-001 3.178238e-001 4.804244e-002
         vertex 2.014408e-001 3.223819e-001 4.428135e-002
      endloop
   endfacet
   facet normal 7.084684e-001 3.208739e-002 -7.050127e-001
      outer loop
         vertex 2.309731e-001 3.269755e-001 7.408285e-002
         vertex 2.014408e-001 3.223819e-001 4.428135e-002
         vertex 1.978491e-001 3.269473e-001 4.079421e-002
      endloop
   endfacet
   facet normal -7.053636e-001 5.890243e-003 7.088212e-001
      outer loop
         vertex 6.322452e-002 3.269720e-001 1.756564e-001
         vertex 6.326678e-002 3.269156e-001 1.757015e-001
         vertex 9.646282e-002 3.178238e-001 2.085931e-001
      endloop
   endfacet
   facet normal -7.052276e-001 -2.050556e-002 7.086844e-001
      outer loop
         vertex 9.646282e-002 3.178238e-001 2.085931e-001
         vertex 6.326678e-002 3.269156e-001 1.757015e-001
         vertex 6.667306e-002 3.223678e-001 1.793308e-001
      endloop
   endfacet
   facet normal -7.035199e-001 -7.249437e-002 7.069684e-001
      outer loop
         vertex 9.646282e-002 3.178238e-001 2.085931e-001
         vertex 6.667306e-002 3.223678e-001 1.793308e-001
         vertex 7.042123e-002 3.178238e-001 1.826785e-001
      endloop
   endfacet
   facet normal -7.000403e-001 1.227639e-001 7.034717e-001
      outer loop
         vertex 6.370775e-002 3.360432e-001 1.744922e-001
         vertex 6.162435e-002 3.291084e-001 1.739515e-001
         vertex 6.322452e-002 3.269720e-001 1.756564e-001
      endloop
   endfacet
   facet normal -7.053623e-001 6.205394e-003 7.088198e-001
      outer loop
         vertex 9.646282e-002 3.178238e-001 2.085931e-001
         vertex 9.633318e-002 3.269755e-001 2.087227e-001
         vertex 6.322452e-002 3.269720e-001 1.756564e-001
      endloop
   endfacet
   facet normal -7.010481e-001 1.106025e-001 7.044846e-001
      outer loop
         vertex 6.322452e-002 3.269720e-001 1.756564e-001
         vertex 9.633318e-002 3.269755e-001 2.087227e-001
         vertex 9.721746e-002 3.360432e-001 2.078384e-001
      endloop
   endfacet
   facet normal -6.959934e-001 1.625604e-001 6.994050e-001
      outer loop
         vertex 6.322452e-002 3.269720e-001 1.756564e-001
         vertex 9.721746e-002 3.360432e-001 2.078384e-001
         vertex 6.370775e-002 3.360432e-001 1.744922e-001
      endloop
   endfacet
   facet normal -6.802143e-001 2.647074e-001 6.835485e-001
      outer loop
         vertex 6.370775e-002 3.360432e-001 1.744922e-001
         vertex 9.721746e-002 3.360432e-001 2.078384e-001
         vertex 9.909390e-002 3.448037e-001 2.059620e-001
      endloop
   endfacet
   facet normal -6.694887e-001 3.149047e-001 6.727704e-001
      outer loop
         vertex 6.370775e-002 3.360432e-001 1.744922e-001
         vertex 9.909390e-002 3.448037e-001 2.059620e-001
         vertex 6.724348e-002 3.448037e-001 1.742669e-001
      endloop
   endfacet
   facet normal -6.426305e-001 4.123027e-001 6.457806e-001
      outer loop
         vertex 6.724348e-002 3.448037e-001 1.742669e-001
         vertex 9.909390e-002 3.448037e-001 2.059620e-001
         vertex 1.019163e-001 3.530412e-001 2.031396e-001
      endloop
   endfacet
   facet normal -6.264980e-001 4.595034e-001 6.295689e-001
      outer loop
         vertex 6.724348e-002 3.448037e-001 1.742669e-001
         vertex 1.019163e-001 3.530412e-001 2.031396e-001
         vertex 7.162350e-002 3.530412e-001 1.729946e-001
      endloop
   endfacet
   facet normal -5.892231e-001 5.497457e-001 5.921113e-001
      outer loop
         vertex 7.162350e-002 3.530412e-001 1.729946e-001
         vertex 1.019163e-001 3.530412e-001 2.031396e-001
         vertex 1.056151e-001 3.605528e-001 1.994408e-001
      endloop
   endfacet
   facet normal -5.680808e-001 5.927874e-001 5.708653e-001
      outer loop
         vertex 7.162350e-002 3.530412e-001 1.729946e-001
         vertex 1.056151e-001 3.605528e-001 1.994408e-001
         vertex 7.673997e-002 3.605528e-001 1.707065e-001
      endloop
   endfacet
   facet normal -7.053927e-001 -9.841113e-002 -7.019519e-001
      outer loop
         vertex 1.225052e-001 8.333333e-003 9.143188e-002
         vertex 1.135036e-001 8.333333e-003 1.004776e-001
         vertex 1.225052e-001 2.016012e-001 6.433643e-002
      endloop
   endfacet
   facet normal -7.053927e-001 -9.841113e-002 -7.019519e-001
      outer loop
         vertex 1.225052e-001 2.016012e-001 6.433643e-002
         vertex 1.135036e-001 8.333333e-003 1.004776e-001
         vertex 8.647456e-002 2.016012e-001 1.005437e-001
      endloop
   endfacet
   facet normal -6.846805e-001 2.588190e-001 -6.813409e-001
      outer loop
         vertex 1.964181e-001 3.360432e-001 4.113137e-002
         vertex 1.958983e-001 3.293135e-001 3.909728e-002
         vertex 1.930287e-001 3.203007e-001 3.855734e-002
      endloop
   endfacet
   facet normal -6.846805e-001 2.588190e-001 -6.813409e-001
      outer loop
         vertex 6.065406e-002 3.108383e-001 1.679863e-001
         vertex 6.106025e-002 3.199006e-001 1.710206e-001
         vertex 1.900604e-001 3.114259e-001 3.816893e-002
      endloop
   endfacet
   facet normal -6.846805e-001 2.588190e-001 -6.813409e-001
      outer loop
         vertex 1.900604e-001 3.114259e-001 3.816893e-002
         vertex 6.106025e-002 3.199006e-001 1.710206e-001
         vertex 1.930287e-001 3.203007e-001 3.855734e-002
      endloop
   endfacet
   facet normal -6.846805e-001 2.588190e-001 -6.813409e-001
      outer loop
         vertex 1.930287e-001 3.203007e-001 3.855734e-002
         vertex 6.106025e-002 3.199006e-001 1.710206e-001
         vertex 6.162435e-002 3.291084e-001 1.739515e-001
      endloop
   endfacet
   facet normal -6.846805e-001 2.588190e-001 -6.813409e-001
      outer loop
         vertex 1.930287e-001 3.203007e-001 3.855734e-002
         vertex 6.162435e-002 3.291084e-001 1.739515e-001
         vertex 6.370775e-002 3.360432e-001 1.744922e-001
      endloop
   endfacet
   facet normal -6.846805e-001 2.588190e-001 -6.813409e-001
      outer loop
         vertex 1.962020e-001 3.448037e-001 4.467632e-002
         vertex 1.964181e-001 3.360432e-001 4.113137e-002
         vertex 7.162350e-002 3.530412e-001 1.729946e-001
      endloop
   endfacet
   facet normal -6.846805e-001 2.588190e-001 -6.813409e-001
      outer loop
         vertex 7.162350e-002 3.530412e-001 1.729946e-001
         vertex 1.964181e-001 3.360432e-001 4.113137e-002
         vertex 1.930287e-001 3.203007e-001 3.855734e-002
      endloop
   endfacet
   facet normal -6.846805e-001 2.588190e-001 -6.813409e-001
      outer loop
         vertex 7.162350e-002 3.530412e-001 1.729946e-001
         vertex 1.930287e-001 3.203007e-001 3.855734e-002
         vertex 6.724348e-002 3.448037e-001 1.742669e-001
      endloop
   endfacet
   facet normal -6.846805e-001 2.588190e-001 -6.813409e-001
      outer loop
         vertex 6.724348e-002 3.448037e-001 1.742669e-001
         vertex 1.930287e-001 3.203007e-001 3.855734e-002
         vertex 6.370775e-002 3.360432e-001 1.744922e-001
      endloop
   endfacet
   facet normal -6.846805e-001 2.588190e-001 -6.813409e-001
      outer loop
         vertex 8.949767e-002 3.771568e-001 1.641936e-001
         vertex 1.862075e-001 3.771568e-001 6.700973e-002
         vertex 7.673997e-002 3.605528e-001 1.707065e-001
      endloop
   endfacet
   facet normal -6.846805e-001 2.588190e-001 -6.813409e-001
      outer loop
         vertex 7.673997e-002 3.605528e-001 1.707065e-001
         vertex 1.862075e-001 3.771568e-001 6.700973e-002
         vertex 1.926734e-001 3.605528e-001 5.420480e-002
      endloop
   endfacet
   facet normal -6.846805e-001 2.588190e-001 -6.813409e-001
      outer loop
         vertex 7.673997e-002 3.605528e-001 1.707065e-001
         vertex 1.926734e-001 3.605528e-001 5.420480e-002
         vertex 7.162350e-002 3.530412e-001 1.729946e-001
      endloop
   endfacet
   facet normal -6.846805e-001 2.588190e-001 -6.813409e-001
      outer loop
         vertex 7.162350e-002 3.530412e-001 1.729946e-001
         vertex 1.926734e-001 3.605528e-001 5.420480e-002
         vertex 1.949434e-001 3.530412e-001 4.907019e-002
      endloop
   endfacet
   facet normal -6.846805e-001 2.588190e-001 -6.813409e-001
      outer loop
         vertex 7.162350e-002 3.530412e-001 1.729946e-001
         vertex 1.949434e-001 3.530412e-001 4.907019e-002
         vertex 1.962020e-001 3.448037e-001 4.467632e-002
      endloop
   endfacet
   facet normal -6.846805e-001 2.588190e-001 -6.813409e-001
      outer loop
         vertex 6.065406e-002 3.108383e-001 1.679863e-001
         vertex 1.900604e-001 3.114259e-001 3.816893e-002
         vertex 6.036227e-002 2.991723e-001 1.638480e-001
      endloop
   endfacet
   facet normal -6.846805e-001 2.588190e-001 -6.813409e-001
      outer loop
         vertex 6.036227e-002 2.991723e-001 1.638480e-001
         vertex 1.900604e-001 3.114259e-001 3.816893e-002
         vertex 1.859111e-001 2.997073e-001 3.788704e-002
      endloop
   endfacet
   facet normal -6.846805e-001 2.588190e-001 -6.813409e-001
      outer loop
         vertex 6.036227e-002 2.991723e-001 1.638480e-001
         vertex 1.859111e-001 2.997073e-001 3.788704e-002
         vertex 6.034886e-002 2.878852e-001 1.595739e-001
      endloop
   endfacet
   facet normal -6.846805e-001 2.588190e-001 -6.813409e-001
      outer loop
         vertex 6.600136e-002 2.317558e-001 1.325720e-001
         vertex 6.440149e-002 2.394351e-001 1.370968e-001
         vertex 8.647456e-002 2.016012e-001 1.005437e-001
      endloop
   endfacet
   facet normal -6.846805e-001 2.588190e-001 -6.813409e-001
      outer loop
         vertex 6.600136e-002 2.317558e-001 1.325720e-001
         vertex 8.647456e-002 2.016012e-001 1.005437e-001
         vertex 6.784526e-002 2.248658e-001 1.281018e-001
      endloop
   endfacet
   facet normal -6.846805e-001 2.588190e-001 -6.813409e-001
      outer loop
         vertex 1.225052e-001 2.016012e-001 6.433643e-002
         vertex 1.590904e-001 2.396604e-001 4.202932e-002
         vertex 1.545557e-001 2.319370e-001 4.365241e-002
      endloop
   endfacet
   facet normal -6.846805e-001 2.588190e-001 -6.813409e-001
      outer loop
         vertex 1.859111e-001 2.997073e-001 3.788704e-002
         vertex 1.816254e-001 2.883666e-001 3.788579e-002
         vertex 6.034886e-002 2.878852e-001 1.595739e-001
      endloop
   endfacet
   facet normal -6.846805e-001 2.588190e-001 -6.813409e-001
      outer loop
         vertex 6.034886e-002 2.878852e-001 1.595739e-001
         vertex 1.816254e-001 2.883666e-001 3.788579e-002
         vertex 1.772296e-001 2.774734e-001 3.816516e-002
      endloop
   endfacet
   facet normal -6.846805e-001 2.588190e-001 -6.813409e-001
      outer loop
         vertex 6.034886e-002 2.878852e-001 1.595739e-001
         vertex 1.772296e-001 2.774734e-001 3.816516e-002
         vertex 6.061393e-002 2.770458e-001 1.551900e-001
      endloop
   endfacet
   facet normal -6.846805e-001 2.588190e-001 -6.813409e-001
      outer loop
         vertex 6.061393e-002 2.770458e-001 1.551900e-001
         vertex 1.772296e-001 2.774734e-001 3.816516e-002
         vertex 1.727506e-001 2.670943e-001 3.872347e-002
      endloop
   endfacet
   facet normal -6.846805e-001 2.588190e-001 -6.813409e-001
      outer loop
         vertex 6.061393e-002 2.770458e-001 1.551900e-001
         vertex 1.727506e-001 2.670943e-001 3.872347e-002
         vertex 6.115587e-002 2.667199e-001 1.507230e-001
      endloop
   endfacet
   facet normal -6.846805e-001 2.588190e-001 -6.813409e-001
      outer loop
         vertex 6.115587e-002 2.667199e-001 1.507230e-001
         vertex 1.727506e-001 2.670943e-001 3.872347e-002
         vertex 1.682158e-001 2.572931e-001 3.955728e-002
      endloop
   endfacet
   facet normal -6.846805e-001 2.588190e-001 -6.813409e-001
      outer loop
         vertex 6.115587e-002 2.667199e-001 1.507230e-001
         vertex 1.682158e-001 2.572931e-001 3.955728e-002
         vertex 6.197135e-002 2.569706e-001 1.462000e-001
      endloop
   endfacet
   facet normal -6.846805e-001 2.588190e-001 -6.813409e-001
      outer loop
         vertex 6.197135e-002 2.569706e-001 1.462000e-001
         vertex 1.682158e-001 2.572931e-001 3.955728e-002
         vertex 1.636531e-001 2.481298e-001 4.066148e-002
      endloop
   endfacet
   facet normal -6.846805e-001 2.588190e-001 -6.813409e-001
      outer loop
         vertex 6.197135e-002 2.569706e-001 1.462000e-001
         vertex 1.636531e-001 2.481298e-001 4.066148e-002
         vertex 6.305543e-002 2.478572e-001 1.416487e-001
      endloop
   endfacet
   facet normal -6.846805e-001 2.588190e-001 -6.813409e-001
      outer loop
         vertex 6.305543e-002 2.478572e-001 1.416487e-001
         vertex 1.636531e-001 2.481298e-001 4.066148e-002
         vertex 1.590904e-001 2.396604e-001 4.202932e-002
      endloop
   endfacet
   facet normal -6.846805e-001 2.588190e-001 -6.813409e-001
      outer loop
         vertex 6.305543e-002 2.478572e-001 1.416487e-001
         vertex 1.590904e-001 2.396604e-001 4.202932e-002
         vertex 6.440149e-002 2.394351e-001 1.370968e-001
      endloop
   endfacet
   facet normal -6.846805e-001 2.588190e-001 -6.813409e-001
      outer loop
         vertex 6.440149e-002 2.394351e-001 1.370968e-001
         vertex 1.590904e-001 2.396604e-001 4.202932e-002
         vertex 1.225052e-001 2.016012e-001 6.433643e-002
      endloop
   endfacet
   facet normal -6.846805e-001 2.588190e-001 -6.813409e-001
      outer loop
         vertex 6.440149e-002 2.394351e-001 1.370968e-001
         vertex 1.225052e-001 2.016012e-001 6.433643e-002
         vertex 8.647456e-002 2.016012e-001 1.005437e-001
      endloop
   endfacet
   facet normal -6.846805e-001 2.588190e-001 -6.813409e-001
      outer loop
         vertex 7.221890e-002 2.136170e-001 1.194336e-001
         vertex 6.992199e-002 2.188073e-001 1.237134e-001
         vertex 8.177894e-002 2.026952e-001 1.056779e-001
      endloop
   endfacet
   facet normal -6.846805e-001 2.588190e-001 -6.813409e-001
      outer loop
         vertex 8.177894e-002 2.026952e-001 1.056779e-001
         vertex 6.992199e-002 2.188073e-001 1.237134e-001
         vertex 8.331026e-002 2.020878e-001 1.039083e-001
      endloop
   endfacet
   facet normal -6.846805e-001 2.588190e-001 -6.813409e-001
      outer loop
         vertex 1.456809e-001 2.189122e-001 4.762304e-002
         vertex 1.276336e-001 2.027020e-001 5.960099e-002
         vertex 1.258654e-001 2.020908e-001 6.114573e-002
      endloop
   endfacet
   facet normal -6.846805e-001 2.588190e-001 -6.813409e-001
      outer loop
         vertex 6.784526e-002 2.248658e-001 1.281018e-001
         vertex 8.647456e-002 2.016012e-001 1.005437e-001
         vertex 6.992199e-002 2.188073e-001 1.237134e-001
      endloop
   endfacet
   facet normal -6.846805e-001 2.588190e-001 -6.813409e-001
      outer loop
         vertex 6.992199e-002 2.188073e-001 1.237134e-001
         vertex 8.647456e-002 2.016012e-001 1.005437e-001
         vertex 8.487628e-002 2.017229e-001 1.021960e-001
      endloop
   endfacet
   facet normal -6.846805e-001 2.588190e-001 -6.813409e-001
      outer loop
         vertex 6.992199e-002 2.188073e-001 1.237134e-001
         vertex 8.487628e-002 2.017229e-001 1.021960e-001
         vertex 8.331026e-002 2.020878e-001 1.039083e-001
      endloop
   endfacet
   facet normal -6.846805e-001 2.588190e-001 -6.813409e-001
      outer loop
         vertex 1.545557e-001 2.319370e-001 4.365241e-002
         vertex 1.500767e-001 2.250067e-001 4.552079e-002
         vertex 1.225052e-001 2.016012e-001 6.433643e-002
      endloop
   endfacet
   facet normal -6.846805e-001 2.588190e-001 -6.813409e-001
      outer loop
         vertex 1.225052e-001 2.016012e-001 6.433643e-002
         vertex 1.500767e-001 2.250067e-001 4.552079e-002
         vertex 1.456809e-001 2.189122e-001 4.762304e-002
      endloop
   endfacet
   facet normal -6.846805e-001 2.588190e-001 -6.813409e-001
      outer loop
         vertex 1.225052e-001 2.016012e-001 6.433643e-002
         vertex 1.456809e-001 2.189122e-001 4.762304e-002
         vertex 1.241550e-001 2.017237e-001 6.272501e-002
      endloop
   endfacet
   facet normal -6.846805e-001 2.588190e-001 -6.813409e-001
      outer loop
         vertex 1.241550e-001 2.017237e-001 6.272501e-002
         vertex 1.456809e-001 2.189122e-001 4.762304e-002
         vertex 1.258654e-001 2.020908e-001 6.114573e-002
      endloop
   endfacet
   facet normal -6.846805e-001 2.588190e-001 -6.813409e-001
      outer loop
         vertex 7.221890e-002 2.136170e-001 1.194336e-001
         vertex 8.177894e-002 2.026952e-001 1.056779e-001
         vertex 7.472200e-002 2.093266e-001 1.152885e-001
      endloop
   endfacet
   facet normal -6.846805e-001 2.588190e-001 -6.813409e-001
      outer loop
         vertex 7.472200e-002 2.093266e-001 1.152885e-001
         vertex 8.177894e-002 2.026952e-001 1.056779e-001
         vertex 8.028462e-002 2.035444e-001 1.075021e-001
      endloop
   endfacet
   facet normal -6.846805e-001 2.588190e-001 -6.813409e-001
      outer loop
         vertex 7.472200e-002 2.093266e-001 1.152885e-001
         vertex 8.028462e-002 2.035444e-001 1.075021e-001
         vertex 7.741604e-002 2.059623e-001 1.113032e-001
      endloop
   endfacet
   facet normal -6.846805e-001 2.588190e-001 -6.813409e-001
      outer loop
         vertex 1.456809e-001 2.189122e-001 4.762304e-002
         vertex 1.413952e-001 2.136907e-001 4.994626e-002
         vertex 1.276336e-001 2.027020e-001 5.960099e-002
      endloop
   endfacet
   facet normal -6.846805e-001 2.588190e-001 -6.813409e-001
      outer loop
         vertex 1.276336e-001 2.027020e-001 5.960099e-002
         vertex 1.413952e-001 2.136907e-001 4.994626e-002
         vertex 1.372459e-001 2.093742e-001 5.247621e-002
      endloop
   endfacet
   facet normal -6.846805e-001 2.588190e-001 -6.813409e-001
      outer loop
         vertex 1.276336e-001 2.027020e-001 5.960099e-002
         vertex 1.372459e-001 2.093742e-001 5.247621e-002
         vertex 1.294571e-001 2.035564e-001 5.809316e-002
      endloop
   endfacet
   facet normal -6.846805e-001 2.588190e-001 -6.813409e-001
      outer loop
         vertex 1.294571e-001 2.035564e-001 5.809316e-002
         vertex 1.372459e-001 2.093742e-001 5.247621e-002
         vertex 1.332584e-001 2.059892e-001 5.519740e-002
      endloop
   endfacet
   facet normal -6.736732e-001 3.110396e-001 -6.703871e-001
      outer loop
         vertex 1.862075e-001 3.771568e-001 6.700973e-002
         vertex 8.949767e-002 3.771568e-001 1.641936e-001
         vertex 9.056468e-002 3.784392e-001 1.637718e-001
      endloop
   endfacet
   facet normal -6.606245e-001 3.624885e-001 -6.574020e-001
      outer loop
         vertex 1.862075e-001 3.771568e-001 6.700973e-002
         vertex 9.056468e-002 3.784392e-001 1.637718e-001
         vertex 1.857894e-001 3.784392e-001 6.808040e-002
      endloop
   endfacet
   facet normal -6.287607e-001 4.617005e-001 -6.256937e-001
      outer loop
         vertex 1.857894e-001 3.784392e-001 6.808040e-002
         vertex 9.056468e-002 3.784392e-001 1.637718e-001
         vertex 9.172229e-002 3.796298e-001 1.635465e-001
      endloop
   endfacet
   facet normal -6.099457e-001 5.094636e-001 -6.069705e-001
      outer loop
         vertex 1.857894e-001 3.784392e-001 6.808040e-002
         vertex 9.172229e-002 3.796298e-001 1.635465e-001
         vertex 1.855674e-001 3.796298e-001 6.924139e-002
      endloop
   endfacet
   facet normal -5.762321e-001 5.823610e-001 -5.734214e-001
      outer loop
         vertex 1.855674e-001 3.796298e-001 6.924139e-002
         vertex 9.172229e-002 3.796298e-001 1.635465e-001
         vertex 9.244458e-002 3.802840e-001 1.635084e-001
      endloop
   endfacet
   facet normal -5.624642e-001 6.085612e-001 -5.597207e-001
      outer loop
         vertex 1.855674e-001 3.796298e-001 6.924139e-002
         vertex 9.244458e-002 3.802840e-001 1.635084e-001
         vertex 1.855311e-001 3.802840e-001 6.996555e-002
      endloop
   endfacet
   facet normal -5.381219e-001 6.508977e-001 -5.354970e-001
      outer loop
         vertex 1.855311e-001 3.802840e-001 6.996555e-002
         vertex 9.244458e-002 3.802840e-001 1.635084e-001
         vertex 1.855311e-001 3.806812e-001 7.050122e-002
      endloop
   endfacet
   facet normal -5.278631e-001 6.674075e-001 -5.252883e-001
      outer loop
         vertex 1.855311e-001 3.806812e-001 7.050122e-002
         vertex 9.244458e-002 3.802840e-001 1.635084e-001
         vertex 9.295603e-002 3.806966e-001 1.635071e-001
      endloop
   endfacet
   facet normal -5.040087e-001 7.031520e-001 -5.015502e-001
      outer loop
         vertex 1.855311e-001 3.806812e-001 7.050122e-002
         vertex 9.295603e-002 3.806966e-001 1.635071e-001
         vertex 9.366675e-002 3.811521e-001 1.635054e-001
      endloop
   endfacet
   facet normal -3.544624e-001 8.659881e-001 -3.527334e-001
      outer loop
         vertex 9.502806e-002 3.819053e-001 1.635020e-001
         vertex 9.600208e-002 3.823493e-001 1.634997e-001
         vertex 1.855311e-001 3.823319e-001 7.354572e-002
      endloop
   endfacet
   facet normal -3.874130e-001 8.374264e-001 -3.855232e-001
      outer loop
         vertex 9.502806e-002 3.819053e-001 1.635020e-001
         vertex 1.855311e-001 3.823319e-001 7.354572e-002
         vertex 9.438323e-002 3.816113e-001 1.635036e-001
      endloop
   endfacet
   facet normal -3.874038e-001 8.374348e-001 -3.855142e-001
      outer loop
         vertex 1.855311e-001 3.823319e-001 7.354572e-002
         vertex 1.855311e-001 3.819277e-001 7.253477e-002
         vertex 9.438323e-002 3.816113e-001 1.635036e-001
      endloop
   endfacet
   facet normal -4.191885e-001 8.063945e-001 -4.171439e-001
      outer loop
         vertex 9.438323e-002 3.816113e-001 1.635036e-001
         vertex 1.855311e-001 3.819277e-001 7.253477e-002
         vertex 1.855311e-001 3.815937e-001 7.192839e-002
      endloop
   endfacet
   facet normal -4.467373e-001 7.763980e-001 -4.445582e-001
      outer loop
         vertex 9.438323e-002 3.816113e-001 1.635036e-001
         vertex 1.855311e-001 3.815937e-001 7.192839e-002
         vertex 9.366675e-002 3.811521e-001 1.635054e-001
      endloop
   endfacet
   facet normal -4.616440e-001 7.588437e-001 -4.593921e-001
      outer loop
         vertex 9.366675e-002 3.811521e-001 1.635054e-001
         vertex 1.855311e-001 3.815937e-001 7.192839e-002
         vertex 1.855311e-001 3.811727e-001 7.116418e-002
      endloop
   endfacet
   facet normal -4.902801e-001 7.222120e-001 -4.878887e-001
      outer loop
         vertex 9.366675e-002 3.811521e-001 1.635054e-001
         vertex 1.855311e-001 3.811727e-001 7.116418e-002
         vertex 1.855311e-001 3.806812e-001 7.050122e-002
      endloop
   endfacet
   facet normal -2.533354e-001 9.339523e-001 -2.520998e-001
      outer loop
         vertex 9.652994e-002 3.825111e-001 1.634984e-001
         vertex 9.776934e-002 3.828911e-001 1.634953e-001
         vertex 1.855311e-001 3.828765e-001 7.531121e-002
      endloop
   endfacet
   facet normal -2.890760e-001 9.130626e-001 -2.876660e-001
      outer loop
         vertex 9.652994e-002 3.825111e-001 1.634984e-001
         vertex 1.855311e-001 3.828765e-001 7.531121e-002
         vertex 9.600208e-002 3.823493e-001 1.634997e-001
      endloop
   endfacet
   facet normal -2.890591e-001 9.130733e-001 -2.876491e-001
      outer loop
         vertex 9.600208e-002 3.823493e-001 1.634997e-001
         vertex 1.855311e-001 3.828765e-001 7.531121e-002
         vertex 1.855311e-001 3.825325e-001 7.404763e-002
      endloop
   endfacet
   facet normal -3.239005e-001 8.894930e-001 -3.223206e-001
      outer loop
         vertex 9.600208e-002 3.823493e-001 1.634997e-001
         vertex 1.855311e-001 3.825325e-001 7.404763e-002
         vertex 1.855311e-001 3.823319e-001 7.354572e-002
      endloop
   endfacet
   facet normal -1.458815e-001 9.785930e-001 -1.451699e-001
      outer loop
         vertex 9.814132e-002 3.829570e-001 1.634944e-001
         vertex 9.963780e-002 3.832220e-001 1.634908e-001
         vertex 1.855311e-001 3.832133e-001 7.717908e-002
      endloop
   endfacet
   facet normal -1.835223e-001 9.659021e-001 -1.826271e-001
      outer loop
         vertex 9.814132e-002 3.829570e-001 1.634944e-001
         vertex 1.855311e-001 3.832133e-001 7.717908e-002
         vertex 9.776934e-002 3.828911e-001 1.634953e-001
      endloop
   endfacet
   facet normal -1.835021e-001 9.659097e-001 -1.826071e-001
      outer loop
         vertex 9.776934e-002 3.828911e-001 1.634953e-001
         vertex 1.855311e-001 3.832133e-001 7.717908e-002
         vertex 1.855311e-001 3.829742e-001 7.566996e-002
      endloop
   endfacet
   facet normal -2.205271e-001 9.503730e-001 -2.194515e-001
      outer loop
         vertex 9.776934e-002 3.828911e-001 1.634953e-001
         vertex 1.855311e-001 3.829742e-001 7.566996e-002
         vertex 1.855311e-001 3.828765e-001 7.531121e-002
      endloop
   endfacet
   facet normal -3.478381e-002 9.987952e-001 -3.461415e-002
      outer loop
         vertex 9.982884e-002 3.832331e-001 1.634903e-001
         vertex 1.015575e-001 3.833333e-001 1.634861e-001
         vertex 1.855311e-001 3.833333e-001 7.910088e-002
      endloop
   endfacet
   facet normal -7.338715e-002 9.946260e-001 -7.302918e-002
      outer loop
         vertex 9.982884e-002 3.832331e-001 1.634903e-001
         vertex 1.855311e-001 3.833333e-001 7.910088e-002
         vertex 9.963780e-002 3.832220e-001 1.634908e-001
      endloop
   endfacet
   facet normal -7.337172e-002 9.946284e-001 -7.301383e-002
      outer loop
         vertex 9.963780e-002 3.832220e-001 1.634908e-001
         vertex 1.855311e-001 3.833333e-001 7.910088e-002
         vertex 1.855311e-001 3.832431e-001 7.736664e-002
      endloop
   endfacet
   facet normal -1.116531e-001 9.875163e-001 -1.111085e-001
      outer loop
         vertex 9.963780e-002 3.832220e-001 1.634908e-001
         vertex 1.855311e-001 3.832431e-001 7.736664e-002
         vertex 1.855311e-001 3.832133e-001 7.717908e-002
      endloop
   endfacet
   facet normal -6.674849e-001 -1.033825e-001 -7.374116e-001
      outer loop
         vertex 1.225052e-001 8.333333e-003 9.143188e-002
         vertex 1.225052e-001 2.016012e-001 6.433643e-002
         vertex 1.294571e-001 8.333333e-003 8.546273e-002
      endloop
   endfacet
   facet normal -6.576951e-001 -1.045849e-001 -7.459887e-001
      outer loop
         vertex 1.294571e-001 8.333333e-003 8.546273e-002
         vertex 1.225052e-001 2.016012e-001 6.433643e-002
         vertex 1.241550e-001 2.017237e-001 6.272501e-002
      endloop
   endfacet
   facet normal -6.377989e-001 -1.069339e-001 -7.627435e-001
      outer loop
         vertex 1.294571e-001 8.333333e-003 8.546273e-002
         vertex 1.241550e-001 2.017237e-001 6.272501e-002
         vertex 1.258654e-001 2.020908e-001 6.114573e-002
      endloop
   endfacet
   facet normal -6.174765e-001 -1.092090e-001 -7.789713e-001
      outer loop
         vertex 1.258654e-001 2.020908e-001 6.114573e-002
         vertex 1.276336e-001 2.027020e-001 5.960099e-002
         vertex 1.294571e-001 8.333333e-003 8.546273e-002
      endloop
   endfacet
   facet normal -5.967385e-001 -1.114090e-001 -7.946642e-001
      outer loop
         vertex 1.294571e-001 8.333333e-003 8.546273e-002
         vertex 1.276336e-001 2.027020e-001 5.960099e-002
         vertex 1.294571e-001 2.035564e-001 5.809316e-002
      endloop
   endfacet
   facet normal -5.431890e-001 -1.165703e-001 -8.314789e-001
      outer loop
         vertex 1.294571e-001 8.333333e-003 8.546273e-002
         vertex 1.294571e-001 2.035564e-001 5.809316e-002
         vertex 1.372459e-001 8.333333e-003 8.066142e-002
      endloop
   endfacet
   facet normal -5.210527e-001 -1.185021e-001 -8.452582e-001
      outer loop
         vertex 1.294571e-001 2.035564e-001 5.809316e-002
         vertex 1.332584e-001 2.059892e-001 5.519740e-002
         vertex 1.372459e-001 8.333333e-003 8.066142e-002
      endloop
   endfacet
   facet normal -4.758054e-001 -1.221156e-001 -8.710321e-001
      outer loop
         vertex 1.372459e-001 8.333333e-003 8.066142e-002
         vertex 1.332584e-001 2.059892e-001 5.519740e-002
         vertex 1.372459e-001 2.093742e-001 5.247621e-002
      endloop
   endfacet
   facet normal -4.056000e-001 -1.269055e-001 -9.051980e-001
      outer loop
         vertex 1.372459e-001 8.333333e-003 8.066142e-002
         vertex 1.372459e-001 2.093742e-001 5.247621e-002
         vertex 1.456809e-001 8.333333e-003 7.714543e-002
      endloop
   endfacet
   facet normal -3.815647e-001 -1.283344e-001 -9.153899e-001
      outer loop
         vertex 1.372459e-001 2.093742e-001 5.247621e-002
         vertex 1.413952e-001 2.136907e-001 4.994626e-002
         vertex 1.456809e-001 8.333333e-003 7.714543e-002
      endloop
   endfacet
   facet normal -3.328121e-001 -1.309239e-001 -9.338603e-001
      outer loop
         vertex 1.456809e-001 8.333333e-003 7.714543e-002
         vertex 1.413952e-001 2.136907e-001 4.994626e-002
         vertex 1.456809e-001 2.189122e-001 4.762304e-002
      endloop
   endfacet
   facet normal -2.580853e-001 -1.341350e-001 -9.567653e-001
      outer loop
         vertex 1.456809e-001 8.333333e-003 7.714543e-002
         vertex 1.456809e-001 2.189122e-001 4.762304e-002
         vertex 1.545557e-001 8.333333e-003 7.500082e-002
      endloop
   endfacet
   facet normal -2.327390e-001 -1.350260e-001 -9.631202e-001
      outer loop
         vertex 1.456809e-001 2.189122e-001 4.762304e-002
         vertex 1.500767e-001 2.250067e-001 4.552079e-002
         vertex 1.545557e-001 8.333333e-003 7.500082e-002
      endloop
   endfacet
   facet normal -1.816742e-001 -1.365281e-001 -9.738350e-001
      outer loop
         vertex 1.545557e-001 8.333333e-003 7.500082e-002
         vertex 1.500767e-001 2.250067e-001 4.552079e-002
         vertex 1.545557e-001 2.319370e-001 4.365241e-002
      endloop
   endfacet
   facet normal -1.042546e-001 -1.380820e-001 -9.849184e-001
      outer loop
         vertex 1.545557e-001 8.333333e-003 7.500082e-002
         vertex 1.545557e-001 2.319370e-001 4.365241e-002
         vertex 1.636531e-001 8.333333e-003 7.428008e-002
      endloop
   endfacet
   facet normal -7.821772e-002 -1.384132e-001 -9.872810e-001
      outer loop
         vertex 1.545557e-001 2.319370e-001 4.365241e-002
         vertex 1.590904e-001 2.396604e-001 4.202932e-002
         vertex 1.636531e-001 8.333333e-003 7.428008e-002
      endloop
   endfacet
   facet normal -2.609034e-002 -1.387913e-001 -9.899778e-001
      outer loop
         vertex 1.636531e-001 8.333333e-003 7.428008e-002
         vertex 1.590904e-001 2.396604e-001 4.202932e-002
         vertex 1.636531e-001 2.481298e-001 4.066148e-002
      endloop
   endfacet
   facet normal 5.212732e-002 -1.386498e-001 -9.889686e-001
      outer loop
         vertex 1.636531e-001 8.333333e-003 7.428008e-002
         vertex 1.636531e-001 2.481298e-001 4.066148e-002
         vertex 1.727506e-001 8.333333e-003 7.500082e-002
      endloop
   endfacet
   facet normal 7.821772e-002 -1.384132e-001 -9.872810e-001
      outer loop
         vertex 1.636531e-001 2.481298e-001 4.066148e-002
         vertex 1.682158e-001 2.572931e-001 3.955728e-002
         vertex 1.727506e-001 8.333333e-003 7.500082e-002
      endloop
   endfacet
   facet normal 1.301320e-001 -1.376580e-001 -9.818940e-001
      outer loop
         vertex 1.727506e-001 8.333333e-003 7.500082e-002
         vertex 1.682158e-001 2.572931e-001 3.955728e-002
         vertex 1.727506e-001 2.670943e-001 3.872347e-002
      endloop
   endfacet
   facet normal 2.072336e-001 -1.358246e-001 -9.688168e-001
      outer loop
         vertex 1.727506e-001 8.333333e-003 7.500082e-002
         vertex 1.727506e-001 2.670943e-001 3.872347e-002
         vertex 1.816254e-001 8.333333e-003 7.714543e-002
      endloop
   endfacet
   facet normal 2.327390e-001 -1.350260e-001 -9.631202e-001
      outer loop
         vertex 1.727506e-001 2.670943e-001 3.872347e-002
         vertex 1.772296e-001 2.774734e-001 3.816516e-002
         vertex 1.816254e-001 8.333333e-003 7.714543e-002
      endloop
   endfacet
   facet normal 2.831697e-001 -1.331559e-001 -9.497812e-001
      outer loop
         vertex 1.816254e-001 8.333333e-003 7.714543e-002
         vertex 1.772296e-001 2.774734e-001 3.816516e-002
         vertex 1.816254e-001 2.883666e-001 3.788579e-002
      endloop
   endfacet
   facet normal 3.572685e-001 -1.296755e-001 -9.249560e-001
      outer loop
         vertex 1.816254e-001 8.333333e-003 7.714543e-002
         vertex 1.816254e-001 2.883666e-001 3.788579e-002
         vertex 1.900604e-001 8.333333e-003 8.066142e-002
      endloop
   endfacet
   facet normal 5.478380e-001 -1.161502e-001 -8.284822e-001
      outer loop
         vertex 1.958983e-001 3.293135e-001 3.909728e-002
         vertex 1.978259e-001 3.269754e-001 4.077401e-002
         vertex 1.930287e-001 3.203007e-001 3.855734e-002
      endloop
   endfacet
   facet normal 5.591423e-001 -1.151072e-001 -8.210422e-001
      outer loop
         vertex 1.930287e-001 3.203007e-001 3.855734e-002
         vertex 1.978259e-001 3.269754e-001 4.077401e-002
         vertex 1.978491e-001 8.333333e-003 8.546273e-002
      endloop
   endfacet
   facet normal 5.152405e-001 -1.189910e-001 -8.487452e-001
      outer loop
         vertex 1.930287e-001 3.203007e-001 3.855734e-002
         vertex 1.978491e-001 8.333333e-003 8.546273e-002
         vertex 1.900604e-001 3.114259e-001 3.816893e-002
      endloop
   endfacet
   facet normal 4.985602e-001 -1.203529e-001 -8.584596e-001
      outer loop
         vertex 1.900604e-001 3.114259e-001 3.816893e-002
         vertex 1.978491e-001 8.333333e-003 8.546273e-002
         vertex 1.900604e-001 8.333333e-003 8.066142e-002
      endloop
   endfacet
   facet normal 4.292777e-001 -1.253952e-001 -8.944254e-001
      outer loop
         vertex 1.900604e-001 3.114259e-001 3.816893e-002
         vertex 1.900604e-001 8.333333e-003 8.066142e-002
         vertex 1.859111e-001 2.997073e-001 3.788704e-002
      endloop
   endfacet
   facet normal 3.815647e-001 -1.283344e-001 -9.153899e-001
      outer loop
         vertex 1.859111e-001 2.997073e-001 3.788704e-002
         vertex 1.900604e-001 8.333333e-003 8.066142e-002
         vertex 1.816254e-001 2.883666e-001 3.788579e-002
      endloop
   endfacet
   facet normal 6.866593e-001 -1.009328e-001 -7.199386e-001
      outer loop
         vertex 2.048010e-001 3.178238e-001 4.804244e-002
         vertex 2.048010e-001 8.333333e-003 9.143188e-002
         vertex 2.014408e-001 3.223819e-001 4.428135e-002
      endloop
   endfacet
   facet normal 6.477895e-001 -1.057699e-001 -7.544411e-001
      outer loop
         vertex 2.014408e-001 3.223819e-001 4.428135e-002
         vertex 2.048010e-001 8.333333e-003 9.143188e-002
         vertex 1.978491e-001 8.333333e-003 8.546273e-002
      endloop
   endfacet
   facet normal 6.071547e-001 -1.103189e-001 -7.868881e-001
      outer loop
         vertex 2.014408e-001 3.223819e-001 4.428135e-002
         vertex 1.978491e-001 8.333333e-003 8.546273e-002
         vertex 1.978491e-001 3.269473e-001 4.079421e-002
      endloop
   endfacet
   facet normal 5.860864e-001 -1.124938e-001 -8.024014e-001
      outer loop
         vertex 1.978491e-001 3.269473e-001 4.079421e-002
         vertex 1.978491e-001 8.333333e-003 8.546273e-002
         vertex 1.978259e-001 3.269754e-001 4.077401e-002
      endloop
   endfacet
   facet normal -7.373087e-001 -1.033429e-001 6.676048e-001
      outer loop
         vertex 1.137043e-001 8.333333e-003 1.825727e-001
         vertex 7.042123e-002 3.178238e-001 1.826785e-001
         vertex 1.077522e-001 8.333333e-003 1.756440e-001
      endloop
   endfacet
   facet normal -7.542910e-001 -1.057113e-001 6.479740e-001
      outer loop
         vertex 1.077522e-001 8.333333e-003 1.756440e-001
         vertex 7.042123e-002 3.178238e-001 1.826785e-001
         vertex 6.667306e-002 3.223678e-001 1.793308e-001
      endloop
   endfacet
   facet normal -8.274525e-001 -1.159094e-001 5.494428e-001
      outer loop
         vertex 6.322452e-002 3.269720e-001 1.756564e-001
         vertex 6.162435e-002 3.291084e-001 1.739515e-001
         vertex 6.106025e-002 3.199006e-001 1.710206e-001
      endloop
   endfacet
   facet normal -8.205591e-001 -1.149489e-001 5.598835e-001
      outer loop
         vertex 6.322452e-002 3.269720e-001 1.756564e-001
         vertex 6.106025e-002 3.199006e-001 1.710206e-001
         vertex 6.326678e-002 3.269156e-001 1.757015e-001
      endloop
   endfacet
   facet normal -7.866588e-001 -1.102241e-001 6.074690e-001
      outer loop
         vertex 6.667306e-002 3.223678e-001 1.793308e-001
         vertex 6.326678e-002 3.269156e-001 1.757015e-001
         vertex 1.077522e-001 8.333333e-003 1.756440e-001
      endloop
   endfacet
   facet normal -8.203753e-001 -1.149233e-001 5.601580e-001
      outer loop
         vertex 1.077522e-001 8.333333e-003 1.756440e-001
         vertex 6.326678e-002 3.269156e-001 1.757015e-001
         vertex 6.106025e-002 3.199006e-001 1.710206e-001
      endloop
   endfacet
   facet normal -8.481299e-001 -1.187899e-001 5.162989e-001
      outer loop
         vertex 1.077522e-001 8.333333e-003 1.756440e-001
         vertex 6.106025e-002 3.199006e-001 1.710206e-001
         vertex 1.029602e-001 8.333333e-003 1.678829e-001
      endloop
   endfacet
   facet normal -8.735750e-001 -1.223330e-001 4.710642e-001
      outer loop
         vertex 6.106025e-002 3.199006e-001 1.710206e-001
         vertex 6.065406e-002 3.108383e-001 1.679863e-001
         vertex 1.029602e-001 8.333333e-003 1.678829e-001
      endloop
   endfacet
   facet normal -8.940008e-001 -1.251756e-001 4.302250e-001
      outer loop
         vertex 1.029602e-001 8.333333e-003 1.678829e-001
         vertex 6.065406e-002 3.108383e-001 1.679863e-001
         vertex 6.036227e-002 2.991723e-001 1.638480e-001
      endloop
   endfacet
   facet normal -9.149570e-001 -1.280901e-001 3.826835e-001
      outer loop
         vertex 1.029602e-001 8.333333e-003 1.678829e-001
         vertex 6.036227e-002 2.991723e-001 1.638480e-001
         vertex 9.944498e-002 8.333333e-003 1.594783e-001
      endloop
   endfacet
   facet normal -9.334356e-001 -1.306578e-001 3.341056e-001
      outer loop
         vertex 6.036227e-002 2.991723e-001 1.638480e-001
         vertex 6.034886e-002 2.878852e-001 1.595739e-001
         vertex 9.944498e-002 8.333333e-003 1.594783e-001
      endloop
   endfacet
   facet normal -9.493815e-001 -1.328710e-001 2.846400e-001
      outer loop
         vertex 9.944498e-002 8.333333e-003 1.594783e-001
         vertex 6.034886e-002 2.878852e-001 1.595739e-001
         vertex 6.061393e-002 2.770458e-001 1.551900e-001
      endloop
   endfacet
   facet normal -9.627626e-001 -1.347252e-001 2.343870e-001
      outer loop
         vertex 9.944498e-002 8.333333e-003 1.594783e-001
         vertex 6.061393e-002 2.770458e-001 1.551900e-001
         vertex 9.729195e-002 8.333333e-003 1.506346e-001
      endloop
   endfacet
   facet normal -9.735367e-001 -1.362146e-001 1.834994e-001
      outer loop
         vertex 6.061393e-002 2.770458e-001 1.551900e-001
         vertex 6.115587e-002 2.667199e-001 1.507230e-001
         vertex 9.729195e-002 8.333333e-003 1.506346e-001
      endloop
   endfacet
   facet normal -9.816722e-001 -1.373347e-001 1.321322e-001
      outer loop
         vertex 9.729195e-002 8.333333e-003 1.506346e-001
         vertex 6.115587e-002 2.667199e-001 1.507230e-001
         vertex 6.197135e-002 2.569706e-001 1.462000e-001
      endloop
   endfacet
   facet normal -9.871526e-001 -1.380835e-001 8.039001e-002
      outer loop
         vertex 9.729195e-002 8.333333e-003 1.506346e-001
         vertex 6.197135e-002 2.569706e-001 1.462000e-001
         vertex 9.655350e-002 8.333333e-003 1.415668e-001
      endloop
   endfacet
   facet normal -9.899601e-001 -1.384584e-001 2.843011e-002
      outer loop
         vertex 6.197135e-002 2.569706e-001 1.462000e-001
         vertex 6.305543e-002 2.478572e-001 1.416487e-001
         vertex 9.655350e-002 8.333333e-003 1.415668e-001
      endloop
   endfacet
   facet normal -9.900873e-001 -1.384584e-001 -2.358917e-002
      outer loop
         vertex 9.655350e-002 8.333333e-003 1.415668e-001
         vertex 6.305543e-002 2.478572e-001 1.416487e-001
         vertex 6.440149e-002 2.394351e-001 1.370968e-001
      endloop
   endfacet
   facet normal -9.875339e-001 -1.380835e-001 -7.556218e-002
      outer loop
         vertex 9.655350e-002 8.333333e-003 1.415668e-001
         vertex 6.440149e-002 2.394351e-001 1.370968e-001
         vertex 9.724760e-002 8.333333e-003 1.324956e-001
      endloop
   endfacet
   facet normal -9.823065e-001 -1.373348e-001 -1.273306e-001
      outer loop
         vertex 6.440149e-002 2.394351e-001 1.370968e-001
         vertex 6.600136e-002 2.317558e-001 1.325720e-001
         vertex 9.724760e-002 8.333333e-003 1.324956e-001
      endloop
   endfacet
   facet normal -9.744223e-001 -1.362146e-001 -1.787369e-001
      outer loop
         vertex 9.724760e-002 8.333333e-003 1.324956e-001
         vertex 6.600136e-002 2.317558e-001 1.325720e-001
         vertex 6.784526e-002 2.248658e-001 1.281018e-001
      endloop
   endfacet
   facet normal -9.638972e-001 -1.347252e-001 -2.296766e-001
      outer loop
         vertex 9.724760e-002 8.333333e-003 1.324956e-001
         vertex 6.784526e-002 2.248658e-001 1.281018e-001
         vertex 9.935736e-002 8.333333e-003 1.236414e-001
      endloop
   endfacet
   facet normal -9.507620e-001 -1.328710e-001 -2.799945e-001
      outer loop
         vertex 6.784526e-002 2.248658e-001 1.281018e-001
         vertex 6.992199e-002 2.188073e-001 1.237134e-001
         vertex 9.935736e-002 8.333333e-003 1.236414e-001
      endloop
   endfacet
   facet normal -9.350581e-001 -1.306578e-001 -3.295374e-001
      outer loop
         vertex 9.935736e-002 8.333333e-003 1.236414e-001
         vertex 6.992199e-002 2.188073e-001 1.237134e-001
         vertex 7.221890e-002 2.136170e-001 1.194336e-001
      endloop
   endfacet
   facet normal -9.168172e-001 -1.280901e-001 -3.782051e-001
      outer loop
         vertex 9.935736e-002 8.333333e-003 1.236414e-001
         vertex 7.221890e-002 2.136170e-001 1.194336e-001
         vertex 1.028315e-001 8.333333e-003 1.152198e-001
      endloop
   endfacet
   facet normal -8.960938e-001 -1.251756e-001 -4.258485e-001
      outer loop
         vertex 7.221890e-002 2.136170e-001 1.194336e-001
         vertex 7.472200e-002 2.093266e-001 1.152885e-001
         vertex 1.028315e-001 8.333333e-003 1.152198e-001
      endloop
   endfacet
   facet normal -8.729521e-001 -1.219233e-001 -4.723233e-001
      outer loop
         vertex 1.028315e-001 8.333333e-003 1.152198e-001
         vertex 7.472200e-002 2.093266e-001 1.152885e-001
         vertex 7.741604e-002 2.059623e-001 1.113032e-001
      endloop
   endfacet
   facet normal -8.474392e-001 -1.183398e-001 -5.175350e-001
      outer loop
         vertex 1.028315e-001 8.333333e-003 1.152198e-001
         vertex 7.741604e-002 2.059623e-001 1.113032e-001
         vertex 1.075854e-001 8.333333e-003 1.074354e-001
      endloop
   endfacet
   facet normal -8.196315e-001 -1.144358e-001 -5.613454e-001
      outer loop
         vertex 1.075854e-001 8.333333e-003 1.074354e-001
         vertex 7.741604e-002 2.059623e-001 1.113032e-001
         vertex 8.028462e-002 2.035444e-001 1.075021e-001
      endloop
   endfacet
   facet normal -7.973214e-001 -1.113048e-001 -5.932031e-001
      outer loop
         vertex 1.075854e-001 8.333333e-003 1.074354e-001
         vertex 8.028462e-002 2.035444e-001 1.075021e-001
         vertex 8.177894e-002 2.026952e-001 1.056779e-001
      endloop
   endfacet
   facet normal -7.143756e-001 -9.967060e-002 -6.926278e-001
      outer loop
         vertex 8.647456e-002 2.016012e-001 1.005437e-001
         vertex 1.135036e-001 8.333333e-003 1.004776e-001
         vertex 8.487628e-002 2.017229e-001 1.021960e-001
      endloop
   endfacet
   facet normal -7.490696e-001 -1.045358e-001 -6.541919e-001
      outer loop
         vertex 8.487628e-002 2.017229e-001 1.021960e-001
         vertex 1.135036e-001 8.333333e-003 1.004776e-001
         vertex 1.075854e-001 8.333333e-003 1.074354e-001
      endloop
   endfacet
   facet normal -7.656817e-001 -1.068658e-001 -6.342800e-001
      outer loop
         vertex 8.487628e-002 2.017229e-001 1.021960e-001
         vertex 1.075854e-001 8.333333e-003 1.074354e-001
         vertex 8.331026e-002 2.020878e-001 1.039083e-001
      endloop
   endfacet
   facet normal -7.817683e-001 -1.091226e-001 -6.139469e-001
      outer loop
         vertex 8.331026e-002 2.020878e-001 1.039083e-001
         vertex 1.075854e-001 8.333333e-003 1.074354e-001
         vertex 8.177894e-002 2.026952e-001 1.056779e-001
      endloop
   endfacet
   facet normal 7.071068e-001 0.000000e+000 7.071068e-001
      outer loop
         vertex 2.074049e-001 3.829742e-001 9.765099e-002
         vertex 2.065586e-001 3.832431e-001 9.849725e-002
         vertex 2.092017e-001 8.333333e-003 9.585416e-002
      endloop
   endfacet
   facet normal 7.071068e-001 0.000000e+000 7.071068e-001
      outer loop
         vertex 2.092017e-001 8.333333e-003 9.585416e-002
         vertex 2.065586e-001 3.832431e-001 9.849725e-002
         vertex 2.056936e-001 3.833333e-001 9.936225e-002
      endloop
   endfacet
   facet normal 7.071068e-001 0.000000e+000 7.071068e-001
      outer loop
         vertex 2.092017e-001 8.333333e-003 9.585416e-002
         vertex 2.056936e-001 3.833333e-001 9.936225e-002
         vertex 1.181045e-001 8.333333e-003 1.869514e-001
      endloop
   endfacet
   facet normal 7.071068e-001 0.000000e+000 7.071068e-001
      outer loop
         vertex 1.181045e-001 8.333333e-003 1.869514e-001
         vertex 2.056936e-001 3.833333e-001 9.936225e-002
         vertex 1.216126e-001 3.833333e-001 1.834433e-001
      endloop
   endfacet
   facet normal 7.071068e-001 0.000000e+000 7.071068e-001
      outer loop
         vertex 1.181045e-001 8.333333e-003 1.869514e-001
         vertex 1.216126e-001 3.833333e-001 1.834433e-001
         vertex 1.207476e-001 3.832431e-001 1.843083e-001
      endloop
   endfacet
   facet normal 7.071068e-001 0.000000e+000 7.071068e-001
      outer loop
         vertex 1.181045e-001 8.333333e-003 1.869514e-001
         vertex 1.056151e-001 3.605528e-001 1.994408e-001
         vertex 9.646282e-002 3.178238e-001 2.085931e-001
      endloop
   endfacet
   facet normal 7.071068e-001 0.000000e+000 7.071068e-001
      outer loop
         vertex 9.646282e-002 3.178238e-001 2.085931e-001
         vertex 1.056151e-001 3.605528e-001 1.994408e-001
         vertex 1.019163e-001 3.530412e-001 2.031396e-001
      endloop
   endfacet
   facet normal 7.071068e-001 0.000000e+000 7.071068e-001
      outer loop
         vertex 1.207476e-001 3.832431e-001 1.843083e-001
         vertex 1.199013e-001 3.829742e-001 1.851546e-001
         vertex 1.181045e-001 8.333333e-003 1.869514e-001
      endloop
   endfacet
   facet normal 7.071068e-001 0.000000e+000 7.071068e-001
      outer loop
         vertex 1.181045e-001 8.333333e-003 1.869514e-001
         vertex 1.199013e-001 3.829742e-001 1.851546e-001
         vertex 1.190921e-001 3.825325e-001 1.859637e-001
      endloop
   endfacet
   facet normal 7.071068e-001 0.000000e+000 7.071068e-001
      outer loop
         vertex 1.181045e-001 8.333333e-003 1.869514e-001
         vertex 1.190921e-001 3.825325e-001 1.859637e-001
         vertex 1.183376e-001 3.819277e-001 1.867183e-001
      endloop
   endfacet
   facet normal 7.071068e-001 0.000000e+000 7.071068e-001
      outer loop
         vertex 2.096523e-001 3.811727e-001 9.540360e-002
         vertex 2.089687e-001 3.819277e-001 9.608722e-002
         vertex 2.092017e-001 8.333333e-003 9.585416e-002
      endloop
   endfacet
   facet normal 7.071068e-001 0.000000e+000 7.071068e-001
      outer loop
         vertex 2.092017e-001 8.333333e-003 9.585416e-002
         vertex 2.089687e-001 3.819277e-001 9.608722e-002
         vertex 2.082141e-001 3.825325e-001 9.684180e-002
      endloop
   endfacet
   facet normal 7.071068e-001 0.000000e+000 7.071068e-001
      outer loop
         vertex 2.092017e-001 8.333333e-003 9.585416e-002
         vertex 2.082141e-001 3.825325e-001 9.684180e-002
         vertex 2.074049e-001 3.829742e-001 9.765099e-002
      endloop
   endfacet
   facet normal 7.071068e-001 0.000000e+000 7.071068e-001
      outer loop
         vertex 1.183376e-001 3.819277e-001 1.867183e-001
         vertex 1.176539e-001 3.811727e-001 1.874020e-001
         vertex 1.181045e-001 8.333333e-003 1.869514e-001
      endloop
   endfacet
   facet normal 7.071068e-001 0.000000e+000 7.071068e-001
      outer loop
         vertex 1.181045e-001 8.333333e-003 1.869514e-001
         vertex 1.176539e-001 3.811727e-001 1.874020e-001
         vertex 1.170561e-001 3.802840e-001 1.879998e-001
      endloop
   endfacet
   facet normal 7.071068e-001 0.000000e+000 7.071068e-001
      outer loop
         vertex 1.181045e-001 8.333333e-003 1.869514e-001
         vertex 1.170561e-001 3.802840e-001 1.879998e-001
         vertex 1.056151e-001 3.605528e-001 1.994408e-001
      endloop
   endfacet
   facet normal 7.071068e-001 0.000000e+000 7.071068e-001
      outer loop
         vertex 1.019163e-001 3.530412e-001 2.031396e-001
         vertex 9.909390e-002 3.448037e-001 2.059620e-001
         vertex 9.646282e-002 3.178238e-001 2.085931e-001
      endloop
   endfacet
   facet normal 7.071068e-001 0.000000e+000 7.071068e-001
      outer loop
         vertex 9.646282e-002 3.178238e-001 2.085931e-001
         vertex 9.909390e-002 3.448037e-001 2.059620e-001
         vertex 9.721746e-002 3.360432e-001 2.078384e-001
      endloop
   endfacet
   facet normal 7.071068e-001 0.000000e+000 7.071068e-001
      outer loop
         vertex 9.646282e-002 3.178238e-001 2.085931e-001
         vertex 9.721746e-002 3.360432e-001 2.078384e-001
         vertex 9.633318e-002 3.269755e-001 2.087227e-001
      endloop
   endfacet
   facet normal 7.071068e-001 0.000000e+000 7.071068e-001
      outer loop
         vertex 2.282123e-001 3.448037e-001 7.684356e-002
         vertex 2.308434e-001 3.178238e-001 7.421249e-002
         vertex 2.300888e-001 3.360432e-001 7.496713e-002
      endloop
   endfacet
   facet normal 7.071068e-001 0.000000e+000 7.071068e-001
      outer loop
         vertex 2.300888e-001 3.360432e-001 7.496713e-002
         vertex 2.308434e-001 3.178238e-001 7.421249e-002
         vertex 2.309731e-001 3.269755e-001 7.408285e-002
      endloop
   endfacet
   facet normal 7.071068e-001 0.000000e+000 7.071068e-001
      outer loop
         vertex 2.282123e-001 3.448037e-001 7.684356e-002
         vertex 2.253900e-001 3.530412e-001 7.966594e-002
         vertex 2.308434e-001 3.178238e-001 7.421249e-002
      endloop
   endfacet
   facet normal 7.071068e-001 0.000000e+000 7.071068e-001
      outer loop
         vertex 2.308434e-001 3.178238e-001 7.421249e-002
         vertex 2.253900e-001 3.530412e-001 7.966594e-002
         vertex 2.216911e-001 3.605528e-001 8.336478e-002
      endloop
   endfacet
   facet normal 7.071068e-001 0.000000e+000 7.071068e-001
      outer loop
         vertex 2.308434e-001 3.178238e-001 7.421249e-002
         vertex 2.216911e-001 3.605528e-001 8.336478e-002
         vertex 2.092017e-001 8.333333e-003 9.585416e-002
      endloop
   endfacet
   facet normal 7.071068e-001 0.000000e+000 7.071068e-001
      outer loop
         vertex 2.092017e-001 8.333333e-003 9.585416e-002
         vertex 2.216911e-001 3.605528e-001 8.336478e-002
         vertex 2.102502e-001 3.802840e-001 9.480575e-002
      endloop
   endfacet
   facet normal 7.071068e-001 0.000000e+000 7.071068e-001
      outer loop
         vertex 2.092017e-001 8.333333e-003 9.585416e-002
         vertex 2.102502e-001 3.802840e-001 9.480575e-002
         vertex 2.096523e-001 3.811727e-001 9.540360e-002
      endloop
   endfacet
endsolid